<svg xmlns="http://www.w3.org/2000/svg" viewBox="0 0 720 232" role="img" aria-label="A five-node cluster split 3 to 2: only the majority can write">
  <rect x="0" y="0" width="720" height="232" fill="#ffffff"/>
  <title>A five-node cluster split 3 to 2: only the majority can write</title>
  <g stroke-linejoin="round">
  <text x="360" y="52" font-size="13" fill="#1e1e1e" fill-opacity="0.55" text-anchor="middle">5 nodes</text>
  <circle cx="120" cy="112" r="18" fill="#d97706" fill-opacity="0.85" stroke="#d97706" stroke-opacity="0.42" stroke-width="1.5"/>
  <circle cx="240" cy="112" r="18" fill="#d97706" fill-opacity="0.85" stroke="#d97706" stroke-opacity="0.42" stroke-width="1.5"/>
  <circle cx="360" cy="112" r="18" fill="#d97706" fill-opacity="0.85" stroke="#d97706" stroke-opacity="0.42" stroke-width="1.5"/>
  <circle cx="480" cy="112" r="18" fill="none" stroke-dasharray="4 3" stroke="#1e1e1e" stroke-opacity="0.4" stroke-width="1.5"/>
  <circle cx="600" cy="112" r="18" fill="none" stroke-dasharray="4 3" stroke="#1e1e1e" stroke-opacity="0.4" stroke-width="1.5"/>
  <line x1="420" y1="52" x2="420" y2="182" stroke="#1e1e1e" stroke-opacity="0.35" stroke-width="1.2" stroke-linecap="round" stroke-dasharray="5 4"/>
  <line x1="24.0" y1="112.0" x2="83.0" y2="112.0" stroke="#d97706" stroke-opacity="0.55" stroke-width="1.5" stroke-linecap="round"/>
  <path d="M92.0,112.0 L83.0,115.6 L83.0,108.4 Z" fill="#d97706" fill-opacity="0.55"/>
  <line x1="696.0" y1="112.0" x2="637.0" y2="112.0" stroke="#1e1e1e" stroke-opacity="0.4" stroke-width="1.5" stroke-linecap="round"/>
  <path d="M628.0,112.0 L637.0,108.4 L637.0,115.6 Z" fill="#1e1e1e" fill-opacity="0.4"/>
  <line x1="645" y1="100" x2="663" y2="124" stroke="#1e1e1e" stroke-opacity="0.75" stroke-width="2.2" stroke-linecap="round"/>
  <line x1="645" y1="124" x2="663" y2="100" stroke="#1e1e1e" stroke-opacity="0.75" stroke-width="2.2" stroke-linecap="round"/>
  <text x="240" y="178" font-size="13" fill="#1e1e1e" fill-opacity="0.9" text-anchor="middle" font-weight="600">writes go through</text>
  <text x="540" y="178" font-size="13" fill="#1e1e1e" fill-opacity="0.5" text-anchor="middle">writes blocked</text>
  <text x="240" y="206" font-size="12" fill="#1e1e1e" fill-opacity="0.55" text-anchor="middle">a majority agrees</text>
  <text x="540" y="206" font-size="12" fill="#1e1e1e" fill-opacity="0.5" text-anchor="middle">no majority here</text>
  </g>
</svg>
